<svg width="38" height="11" viewBox="0 0 38 11" fill="none" xmlns="http://www.w3.org/2000/svg">
<path fill-rule="evenodd" clip-rule="evenodd" d="M3.43701 4.83077L2.39127 5.01004V9.80122C2.39127 9.90927 2.30368 9.99686 2.19564 9.99686C2.08759 9.99686 2 9.90927 2 9.80122V1.7694C2 1.49193 2.19991 1.25482 2.4734 1.20794L3.37089 1.05408C4.1094 0.927482 4.86888 1.02433 5.552 1.33221C6.35283 1.69314 7.26296 1.72715 8.08849 1.42695L8.21983 1.37919C8.49312 1.27981 8.78208 1.4822 8.78208 1.773V4.67405C8.78208 4.85899 8.66638 5.02419 8.49256 5.08739L8.2222 5.18571C7.30082 5.52075 6.28503 5.48281 5.39122 5.07996C4.77918 4.80411 4.09869 4.71734 3.43701 4.83077Z" fill="#333333"/>
<path d="M2 1.34021C2 1.23187 2.08783 1.14404 2.19618 1.14404C2.30452 1.14404 2.39235 1.23187 2.39235 1.34021V9.8038C2.39235 9.91214 2.30452 9.99997 2.19618 9.99997C2.08783 9.99997 2 9.91214 2 9.8038V1.34021Z" fill="#424242"/>
<path d="M32.7443 3.63636L33.5455 5.16193L34.3665 3.63636H35.608L34.3438 5.81818L35.642 8H34.4062L33.5455 6.49147L32.6989 8H31.4489L32.7443 5.81818L31.4943 3.63636H32.7443Z" fill="black"/>
<path d="M28.3366 8.08238C28.0582 8.08238 27.8101 8.03409 27.5923 7.9375C27.3745 7.83901 27.2022 7.69413 27.0753 7.50284C26.9503 7.30966 26.8878 7.06913 26.8878 6.78125C26.8878 6.53882 26.9323 6.33523 27.0213 6.17045C27.1103 6.00568 27.2315 5.8731 27.3849 5.77273C27.5384 5.67235 27.7126 5.59659 27.9077 5.54545C28.1046 5.49432 28.3111 5.45833 28.527 5.4375C28.7808 5.41098 28.9853 5.38636 29.1406 5.36363C29.2959 5.33901 29.4086 5.30303 29.4787 5.25568C29.5488 5.20833 29.5838 5.13826 29.5838 5.04545V5.02841C29.5838 4.84848 29.527 4.70928 29.4134 4.61079C29.3016 4.51231 29.1425 4.46307 28.9361 4.46307C28.7183 4.46307 28.545 4.51136 28.4162 4.60795C28.2874 4.70265 28.2022 4.82197 28.1605 4.96591L27.0412 4.875C27.098 4.60985 27.2098 4.38068 27.3764 4.1875C27.5431 3.99242 27.758 3.8428 28.0213 3.73863C28.2865 3.63257 28.5933 3.57954 28.9418 3.57954C29.1842 3.57954 29.4162 3.60795 29.6378 3.66477C29.8613 3.72159 30.0592 3.80966 30.2315 3.92898C30.4058 4.04829 30.5431 4.2017 30.6435 4.3892C30.7438 4.57481 30.794 4.79735 30.794 5.05682V8H29.6463V7.39489H29.6122C29.5421 7.53125 29.4484 7.65151 29.331 7.75568C29.2135 7.85795 29.0724 7.93845 28.9077 7.99716C28.7429 8.05398 28.5526 8.08238 28.3366 8.08238ZM28.6832 7.24716C28.8613 7.24716 29.0185 7.21212 29.1548 7.14204C29.2912 7.07007 29.3982 6.97348 29.4759 6.85227C29.5535 6.73106 29.5923 6.59375 29.5923 6.44034V5.97727C29.5544 6.00189 29.5024 6.02462 29.4361 6.04545C29.3717 6.06439 29.2988 6.08239 29.2173 6.09943C29.1359 6.11458 29.0544 6.12879 28.973 6.14204C28.8916 6.15341 28.8177 6.16382 28.7514 6.17329C28.6094 6.19413 28.4853 6.22727 28.3793 6.27273C28.2732 6.31818 28.1908 6.37973 28.1321 6.45739C28.0734 6.53314 28.044 6.62784 28.044 6.74148C28.044 6.90625 28.1037 7.0322 28.223 7.11932C28.3442 7.20454 28.4976 7.24716 28.6832 7.24716Z" fill="black"/>
<path d="M19.7947 2.18182H21.3118L22.9141 6.09091H22.9822L24.5845 2.18182H26.1016V8H24.9084V4.21307H24.8601L23.3544 7.97159H22.5419L21.0362 4.19886H20.9879V8H19.7947V2.18182Z" fill="black"/>
<path d="M16.7188 5.62784L12.7188 7.38921V6.23864L15.4574 5.13921L15.4205 5.19886V5.05682L15.4574 5.11648L12.7188 4.01705V2.86648L16.7188 4.62784V5.62784Z" fill="black"/>
</svg>
