<svg width="34" height="11" viewBox="0 0 34 11" fill="none" xmlns="http://www.w3.org/2000/svg">
<rect width="34" height="11" fill="white"/>
<path fill-rule="evenodd" clip-rule="evenodd" d="M3.43701 4.83077L2.39127 5.01004V9.80122C2.39127 9.90927 2.30368 9.99686 2.19564 9.99686C2.08759 9.99686 2 9.90927 2 9.80122V1.7694C2 1.49193 2.19991 1.25482 2.4734 1.20794L3.37089 1.05408C4.1094 0.927482 4.86888 1.02433 5.552 1.33221C6.35283 1.69314 7.26296 1.72715 8.08849 1.42695L8.21983 1.37919C8.49312 1.27981 8.78208 1.4822 8.78208 1.773V4.67405C8.78208 4.85899 8.66638 5.02419 8.49256 5.08739L8.2222 5.18571C7.30082 5.52075 6.28503 5.48281 5.39122 5.07996C4.77918 4.80411 4.09869 4.71734 3.43701 4.83077Z" fill="#333333"/>
<path d="M2 1.34021C2 1.23187 2.08783 1.14404 2.19618 1.14404C2.30452 1.14404 2.39235 1.23187 2.39235 1.34021V9.8038C2.39235 9.91214 2.30452 9.99997 2.19618 9.99997C2.08783 9.99997 2 9.91214 2 9.8038V1.34021Z" fill="#424242"/>
<path d="M28.4187 3.28802H29.5547V6.35203L30.9867 4.86403H32.3307L30.7707 6.38403L32.5067 9.00003H31.1307L29.9947 7.15203L29.5547 7.57603V9.00003H28.4187V3.28802Z" fill="black"/>
<path d="M26.537 6.32001C26.4624 5.84535 26.1824 5.60801 25.697 5.60801C25.5157 5.60801 25.3637 5.65068 25.241 5.73601C25.1184 5.81601 25.017 5.92268 24.937 6.05601C24.8624 6.18401 24.809 6.32801 24.777 6.48801C24.745 6.64268 24.729 6.79735 24.729 6.95201C24.729 7.10135 24.745 7.25335 24.777 7.40801C24.809 7.56268 24.8597 7.70401 24.929 7.83201C25.0037 7.95468 25.1024 8.05601 25.225 8.13601C25.3477 8.21601 25.497 8.25601 25.673 8.25601C25.945 8.25601 26.153 8.18135 26.297 8.03201C26.4464 7.87735 26.5397 7.67201 26.577 7.41601H27.673C27.5984 7.96535 27.385 8.38401 27.033 8.67201C26.681 8.96001 26.2304 9.10401 25.681 9.10401C25.3717 9.10401 25.0864 9.05335 24.825 8.95201C24.569 8.84535 24.3504 8.69868 24.169 8.51201C23.9877 8.32535 23.8464 8.10401 23.745 7.84801C23.6437 7.58668 23.593 7.30135 23.593 6.99201C23.593 6.67201 23.6384 6.37601 23.729 6.10401C23.825 5.82668 23.9637 5.58935 24.145 5.39201C24.3264 5.18935 24.5477 5.03201 24.809 4.92001C25.0704 4.80801 25.369 4.75201 25.705 4.75201C25.9504 4.75201 26.185 4.78401 26.409 4.84801C26.6384 4.91201 26.841 5.01068 27.017 5.14401C27.1984 5.27201 27.345 5.43468 27.457 5.63201C27.569 5.82401 27.633 6.05335 27.649 6.32001H26.537Z" fill="black"/>
<path d="M19.0794 6.13601C19.0954 5.86935 19.1621 5.64801 19.2794 5.47201C19.3967 5.29601 19.5461 5.15468 19.7274 5.04801C19.9087 4.94135 20.1114 4.86668 20.3354 4.82401C20.5647 4.77601 20.7941 4.75201 21.0234 4.75201C21.2314 4.75201 21.4421 4.76801 21.6554 4.80001C21.8687 4.82668 22.0634 4.88268 22.2394 4.96801C22.4154 5.05335 22.5594 5.17335 22.6714 5.32801C22.7834 5.47735 22.8394 5.67735 22.8394 5.92801V8.08001C22.8394 8.26668 22.8501 8.44535 22.8714 8.61601C22.8927 8.78668 22.9301 8.91468 22.9834 9.00001H21.8314C21.8101 8.93601 21.7914 8.87201 21.7754 8.80801C21.7647 8.73868 21.7567 8.66935 21.7514 8.60001C21.5701 8.78668 21.3567 8.91735 21.1114 8.99201C20.8661 9.06668 20.6154 9.10401 20.3594 9.10401C20.1621 9.10401 19.9781 9.08001 19.8074 9.03201C19.6367 8.98401 19.4874 8.90935 19.3594 8.80801C19.2314 8.70668 19.1301 8.57868 19.0554 8.42401C18.9861 8.26935 18.9514 8.08535 18.9514 7.87201C18.9514 7.63735 18.9914 7.44535 19.0714 7.29601C19.1567 7.14135 19.2634 7.01868 19.3914 6.92801C19.5247 6.83735 19.6741 6.77068 19.8394 6.72801C20.0101 6.68001 20.1807 6.64268 20.3514 6.61601C20.5221 6.58935 20.6901 6.56801 20.8554 6.55201C21.0207 6.53601 21.1674 6.51201 21.2954 6.48001C21.4234 6.44801 21.5247 6.40268 21.5994 6.34401C21.6741 6.28001 21.7087 6.18935 21.7034 6.07201C21.7034 5.94935 21.6821 5.85335 21.6394 5.78401C21.6021 5.70935 21.5487 5.65335 21.4794 5.61601C21.4154 5.57335 21.3381 5.54668 21.2474 5.53601C21.1621 5.52001 21.0687 5.51201 20.9674 5.51201C20.7434 5.51201 20.5674 5.56001 20.4394 5.65601C20.3114 5.75201 20.2367 5.91201 20.2154 6.13601H19.0794ZM21.7034 6.97601C21.6554 7.01868 21.5941 7.05335 21.5194 7.08001C21.4501 7.10135 21.3727 7.12001 21.2874 7.13601C21.2074 7.15201 21.1221 7.16535 21.0314 7.17601C20.9407 7.18668 20.8501 7.20001 20.7594 7.21601C20.6741 7.23201 20.5887 7.25335 20.5034 7.28001C20.4234 7.30668 20.3514 7.34401 20.2874 7.39201C20.2287 7.43468 20.1807 7.49068 20.1434 7.56001C20.1061 7.62935 20.0874 7.71735 20.0874 7.82401C20.0874 7.92535 20.1061 8.01068 20.1434 8.08001C20.1807 8.14935 20.2314 8.20535 20.2954 8.24801C20.3594 8.28535 20.4341 8.31201 20.5194 8.32801C20.6047 8.34401 20.6927 8.35201 20.7834 8.35201C21.0074 8.35201 21.1807 8.31468 21.3034 8.24001C21.4261 8.16535 21.5167 8.07735 21.5754 7.97601C21.6341 7.86935 21.6687 7.76268 21.6794 7.65601C21.6954 7.54935 21.7034 7.46401 21.7034 7.40001V6.97601Z" fill="black"/>
<path d="M17.0969 3.28802H18.2329V9.00003H17.0969V3.28802Z" fill="black"/>
<path d="M12.808 5.60003H14.08C14.304 5.60003 14.488 5.54669 14.632 5.44002C14.776 5.33336 14.848 5.16002 14.848 4.92002C14.848 4.78669 14.824 4.67736 14.776 4.59203C14.728 4.50669 14.664 4.44003 14.584 4.39202C14.504 4.34402 14.4107 4.31203 14.304 4.29603C14.2027 4.27469 14.096 4.26403 13.984 4.26403H12.808V5.60003ZM11.552 3.28802H14.24C14.512 3.28802 14.76 3.31202 14.984 3.36002C15.208 3.40802 15.4 3.48803 15.56 3.60003C15.72 3.70669 15.8427 3.85069 15.928 4.03202C16.0187 4.21336 16.064 4.43736 16.064 4.70403C16.064 4.99203 15.9973 5.23203 15.864 5.42403C15.736 5.61603 15.544 5.77336 15.288 5.89603C15.64 5.99736 15.9013 6.17603 16.072 6.43203C16.248 6.68269 16.336 6.98669 16.336 7.34403C16.336 7.63203 16.28 7.88269 16.168 8.09602C16.056 8.30403 15.904 8.47469 15.712 8.60803C15.5253 8.74136 15.3093 8.84003 15.064 8.90403C14.824 8.96803 14.576 9.00003 14.32 9.00003H11.552V3.28802ZM12.808 8.02403H14.152C14.2747 8.02403 14.392 8.01336 14.504 7.99203C14.616 7.96536 14.7147 7.92536 14.8 7.87203C14.8853 7.81336 14.952 7.73603 15 7.64003C15.0533 7.54403 15.08 7.42136 15.08 7.27203C15.08 6.97869 14.9973 6.77069 14.832 6.64803C14.6667 6.52002 14.448 6.45603 14.176 6.45603H12.808V8.02403Z" fill="black"/>
</svg>
