<svg width="37" height="11" viewBox="0 0 37 11" fill="none" xmlns="http://www.w3.org/2000/svg">
<rect width="37" height="11" fill="white"/>
<path fill-rule="evenodd" clip-rule="evenodd" d="M3.43701 4.83077L2.39127 5.01004V9.80122C2.39127 9.90927 2.30368 9.99686 2.19564 9.99686C2.08759 9.99686 2 9.90927 2 9.80122V1.7694C2 1.49193 2.19991 1.25482 2.4734 1.20794L3.37089 1.05408C4.1094 0.927482 4.86888 1.02433 5.552 1.33221C6.35283 1.69314 7.26296 1.72715 8.08849 1.42695L8.21983 1.37919C8.49312 1.27981 8.78208 1.4822 8.78208 1.773V4.67405C8.78208 4.85899 8.66638 5.02419 8.49256 5.08739L8.2222 5.18571C7.30082 5.52075 6.28503 5.48281 5.39122 5.07996C4.77918 4.80411 4.09869 4.71734 3.43701 4.83077Z" fill="#77DD77"/>
<path d="M2 1.34021C2 1.23187 2.08783 1.14404 2.19618 1.14404C2.30452 1.14404 2.39235 1.23187 2.39235 1.34021V9.8038C2.39235 9.91214 2.30452 9.99997 2.19618 9.99997C2.08783 9.99997 2 9.91214 2 9.8038V1.34021Z" fill="#424242"/>
<path d="M29.6584 4.86401H30.7384V5.44001H30.7624C30.9064 5.20001 31.0931 5.02668 31.3224 4.92001C31.5518 4.80801 31.7864 4.75201 32.0264 4.75201C32.3304 4.75201 32.5784 4.79468 32.7704 4.88001C32.9678 4.96001 33.1224 5.07468 33.2344 5.22401C33.3464 5.36801 33.4238 5.54668 33.4664 5.76001C33.5144 5.96801 33.5384 6.20001 33.5384 6.45601V9.00001H32.4024V6.66401C32.4024 6.32268 32.3491 6.06935 32.2424 5.90401C32.1358 5.73335 31.9464 5.64801 31.6744 5.64801C31.3651 5.64801 31.1411 5.74135 31.0024 5.92801C30.8638 6.10935 30.7944 6.41068 30.7944 6.83201V9.00001H29.6584V4.86401Z" fill="black"/>
<path d="M27.8487 6.48801C27.7954 6.20001 27.6994 5.98135 27.5607 5.83201C27.4274 5.68268 27.2221 5.60801 26.9447 5.60801C26.7634 5.60801 26.6114 5.64001 26.4887 5.70401C26.3714 5.76268 26.2754 5.83735 26.2007 5.92801C26.1314 6.01868 26.0807 6.11468 26.0487 6.21601C26.0221 6.31735 26.0061 6.40801 26.0007 6.48801H27.8487ZM26.0007 7.20801C26.0167 7.57601 26.1101 7.84268 26.2807 8.00801C26.4514 8.17335 26.6967 8.25601 27.0167 8.25601C27.2461 8.25601 27.4434 8.20001 27.6087 8.08801C27.7741 7.97068 27.8754 7.84801 27.9127 7.72001H28.9127C28.7527 8.21601 28.5074 8.57068 28.1767 8.78401C27.8461 8.99735 27.4461 9.10401 26.9767 9.10401C26.6514 9.10401 26.3581 9.05335 26.0967 8.95201C25.8354 8.84535 25.6141 8.69601 25.4327 8.50401C25.2514 8.31201 25.1101 8.08268 25.0087 7.81601C24.9127 7.54935 24.8647 7.25601 24.8647 6.93601C24.8647 6.62668 24.9154 6.33868 25.0167 6.07201C25.1181 5.80535 25.2621 5.57601 25.4487 5.38401C25.6354 5.18668 25.8567 5.03201 26.1127 4.92001C26.3741 4.80801 26.6621 4.75201 26.9767 4.75201C27.3287 4.75201 27.6354 4.82135 27.8967 4.96001C28.1581 5.09335 28.3714 5.27468 28.5367 5.50401C28.7074 5.73335 28.8301 5.99468 28.9047 6.28801C28.9794 6.58135 29.0061 6.88801 28.9847 7.20801H26.0007Z" fill="black"/>
<path d="M23.255 6.48801C23.2017 6.20001 23.1057 5.98135 22.967 5.83201C22.8337 5.68268 22.6283 5.60801 22.351 5.60801C22.1697 5.60801 22.0177 5.64001 21.895 5.70401C21.7777 5.76268 21.6817 5.83735 21.607 5.92801C21.5377 6.01868 21.487 6.11468 21.455 6.21601C21.4283 6.31735 21.4123 6.40801 21.407 6.48801H23.255ZM21.407 7.20801C21.423 7.57601 21.5163 7.84268 21.687 8.00801C21.8577 8.17335 22.103 8.25601 22.423 8.25601C22.6523 8.25601 22.8497 8.20001 23.015 8.08801C23.1803 7.97068 23.2817 7.84801 23.319 7.72001H24.319C24.159 8.21601 23.9137 8.57068 23.583 8.78401C23.2523 8.99735 22.8523 9.10401 22.383 9.10401C22.0577 9.10401 21.7643 9.05335 21.503 8.95201C21.2417 8.84535 21.0203 8.69601 20.839 8.50401C20.6577 8.31201 20.5163 8.08268 20.415 7.81601C20.319 7.54935 20.271 7.25601 20.271 6.93601C20.271 6.62668 20.3217 6.33868 20.423 6.07201C20.5243 5.80535 20.6683 5.57601 20.855 5.38401C21.0417 5.18668 21.263 5.03201 21.519 4.92001C21.7803 4.80801 22.0683 4.75201 22.383 4.75201C22.735 4.75201 23.0417 4.82135 23.303 4.96001C23.5643 5.09335 23.7777 5.27468 23.943 5.50401C24.1137 5.73335 24.2363 5.99468 24.311 6.28801C24.3857 6.58135 24.4123 6.88801 24.391 7.20801H21.407Z" fill="black"/>
<path d="M17.5022 4.86401H18.5822V5.63201H18.5982C18.6515 5.50401 18.7235 5.38668 18.8142 5.28001C18.9049 5.16801 19.0089 5.07468 19.1262 5.00001C19.2435 4.92001 19.3689 4.85868 19.5022 4.81601C19.6355 4.77335 19.7742 4.75201 19.9182 4.75201C19.9929 4.75201 20.0755 4.76535 20.1662 4.79201V5.84801C20.1129 5.83735 20.0489 5.82935 19.9742 5.82401C19.8995 5.81335 19.8275 5.80801 19.7582 5.80801C19.5502 5.80801 19.3742 5.84268 19.2302 5.91201C19.0862 5.98135 18.9689 6.07735 18.8782 6.20001C18.7929 6.31735 18.7315 6.45601 18.6942 6.61601C18.6569 6.77601 18.6382 6.94935 18.6382 7.13601V9.00001H17.5022V4.86401Z" fill="black"/>
<path d="M15.68 8.35198C15.456 8.63998 15.208 8.84264 14.936 8.95998C14.664 9.07198 14.3893 9.12798 14.112 9.12798C13.6746 9.12798 13.28 9.05331 12.928 8.90398C12.5813 8.74931 12.288 8.53864 12.048 8.27198C11.808 8.00531 11.624 7.69331 11.496 7.33598C11.368 6.97331 11.304 6.58398 11.304 6.16798C11.304 5.74131 11.368 5.34664 11.496 4.98398C11.624 4.61598 11.808 4.29598 12.048 4.02398C12.288 3.75198 12.5813 3.53864 12.928 3.38398C13.28 3.22931 13.6746 3.15198 14.112 3.15198C14.4053 3.15198 14.688 3.19731 14.96 3.28798C15.2373 3.37331 15.4853 3.50131 15.704 3.67198C15.928 3.84264 16.112 4.05331 16.256 4.30398C16.4 4.55464 16.488 4.84264 16.52 5.16798H15.32C15.2453 4.84798 15.1013 4.60798 14.888 4.44798C14.6746 4.28798 14.416 4.20798 14.112 4.20798C13.8293 4.20798 13.5893 4.26398 13.392 4.37598C13.1946 4.48264 13.0346 4.62931 12.912 4.81598C12.7893 4.99731 12.6986 5.20531 12.64 5.43998C12.5866 5.67464 12.56 5.91731 12.56 6.16798C12.56 6.40798 12.5866 6.64264 12.64 6.87198C12.6986 7.09598 12.7893 7.29864 12.912 7.47998C13.0346 7.66131 13.1946 7.80798 13.392 7.91998C13.5893 8.02664 13.8293 8.07998 14.112 8.07998C14.528 8.07998 14.848 7.97598 15.072 7.76798C15.3013 7.55464 15.4346 7.24798 15.472 6.84798H14.208V5.91198H16.608V8.99998H15.808L15.68 8.35198Z" fill="black"/>
</svg>
