<svg width="42" height="11" viewBox="0 0 42 11" fill="none" xmlns="http://www.w3.org/2000/svg">
<rect width="42" height="11" fill="white"/>
<path fill-rule="evenodd" clip-rule="evenodd" d="M3.43701 4.83077L2.39127 5.01004V9.80122C2.39127 9.90927 2.30368 9.99686 2.19564 9.99686C2.08759 9.99686 2 9.90927 2 9.80122V1.7694C2 1.49193 2.19991 1.25482 2.4734 1.20794L3.37089 1.05408C4.1094 0.927482 4.86888 1.02433 5.552 1.33221C6.35283 1.69314 7.26296 1.72715 8.08849 1.42695L8.21983 1.37919C8.49312 1.27981 8.78208 1.4822 8.78208 1.773V4.67405C8.78208 4.85899 8.66638 5.02419 8.49256 5.08739L8.2222 5.18571C7.30082 5.52075 6.28503 5.48281 5.39122 5.07996C4.77918 4.80411 4.09869 4.71734 3.43701 4.83077Z" fill="#FFAD39"/>
<path d="M2 1.34021C2 1.23187 2.08783 1.14404 2.19618 1.14404C2.30452 1.14404 2.39235 1.23187 2.39235 1.34021V9.8038C2.39235 9.91214 2.30452 9.99997 2.19618 9.99997C2.08783 9.99997 2 9.91214 2 9.8038V1.34021Z" fill="#424242"/>
<path d="M37.7784 6.48801C37.7251 6.20001 37.6291 5.98135 37.4904 5.83201C37.3571 5.68268 37.1518 5.60801 36.8744 5.60801C36.6931 5.60801 36.5411 5.64001 36.4184 5.70401C36.3011 5.76268 36.2051 5.83735 36.1304 5.92801C36.0611 6.01868 36.0104 6.11468 35.9784 6.21601C35.9518 6.31735 35.9358 6.40801 35.9304 6.48801H37.7784ZM35.9304 7.20801C35.9464 7.57601 36.0398 7.84268 36.2104 8.00801C36.3811 8.17335 36.6264 8.25601 36.9464 8.25601C37.1758 8.25601 37.3731 8.20001 37.5384 8.08801C37.7038 7.97068 37.8051 7.84801 37.8424 7.72001H38.8424C38.6824 8.21601 38.4371 8.57068 38.1064 8.78401C37.7758 8.99735 37.3758 9.10401 36.9064 9.10401C36.5811 9.10401 36.2878 9.05335 36.0264 8.95201C35.7651 8.84535 35.5438 8.69601 35.3624 8.50401C35.1811 8.31201 35.0398 8.08268 34.9384 7.81601C34.8424 7.54935 34.7944 7.25601 34.7944 6.93601C34.7944 6.62668 34.8451 6.33868 34.9464 6.07201C35.0478 5.80535 35.1918 5.57601 35.3784 5.38401C35.5651 5.18668 35.7864 5.03201 36.0424 4.92001C36.3038 4.80801 36.5918 4.75201 36.9064 4.75201C37.2584 4.75201 37.5651 4.82135 37.8264 4.96001C38.0878 5.09335 38.3011 5.27468 38.4664 5.50401C38.6371 5.73335 38.7598 5.99468 38.8344 6.28801C38.9091 6.58135 38.9358 6.88801 38.9144 7.20801H35.9304Z" fill="black"/>
<path d="M32.0318 8.02401C32.1918 8.02401 32.3332 7.99201 32.4558 7.92801C32.5785 7.86401 32.6798 7.77868 32.7598 7.67201C32.8398 7.56535 32.8985 7.44535 32.9358 7.31201C32.9785 7.17335 32.9998 7.02935 32.9998 6.88001C32.9998 6.70935 32.9838 6.54935 32.9518 6.40001C32.9198 6.24535 32.8665 6.10935 32.7918 5.99201C32.7172 5.87468 32.6185 5.78135 32.4958 5.71201C32.3732 5.64268 32.2185 5.60801 32.0318 5.60801C31.8718 5.60801 31.7332 5.64001 31.6158 5.70401C31.5038 5.76801 31.4078 5.85601 31.3278 5.96801C31.2532 6.07468 31.1972 6.20001 31.1598 6.34401C31.1278 6.48268 31.1118 6.62935 31.1118 6.78401C31.1118 6.93335 31.1252 7.08268 31.1518 7.23201C31.1838 7.37601 31.2345 7.50668 31.3038 7.62401C31.3785 7.74135 31.4745 7.83735 31.5918 7.91201C31.7092 7.98668 31.8558 8.02401 32.0318 8.02401ZM34.0798 8.73601C34.0798 8.90135 34.0558 9.09068 34.0078 9.30401C33.9652 9.51735 33.8692 9.71468 33.7198 9.89601C33.5705 10.0827 33.3545 10.24 33.0718 10.368C32.7892 10.496 32.4105 10.56 31.9358 10.56C31.7332 10.56 31.5252 10.5333 31.3118 10.48C31.1038 10.432 30.9118 10.3547 30.7358 10.248C30.5652 10.1413 30.4212 10.0027 30.3038 9.83201C30.1918 9.66668 30.1278 9.46668 30.1118 9.23201H31.2398C31.2932 9.44535 31.3972 9.59201 31.5518 9.67201C31.7065 9.75735 31.8852 9.80001 32.0878 9.80001C32.4078 9.80001 32.6398 9.70401 32.7838 9.51201C32.9332 9.32001 33.0052 9.07735 32.9998 8.78401V8.24001H32.9838C32.8612 8.45868 32.6852 8.62135 32.4558 8.72801C32.2318 8.82935 31.9945 8.88001 31.7438 8.88001C31.4345 8.88001 31.1678 8.82668 30.9438 8.72001C30.7198 8.60801 30.5358 8.45868 30.3918 8.27201C30.2478 8.08001 30.1412 7.85868 30.0718 7.60801C30.0078 7.35201 29.9758 7.08268 29.9758 6.80001C29.9758 6.53335 30.0132 6.27735 30.0878 6.03201C30.1678 5.78135 30.2825 5.56268 30.4318 5.37601C30.5812 5.18401 30.7652 5.03201 30.9838 4.92001C31.2078 4.80801 31.4638 4.75201 31.7518 4.75201C32.0238 4.75201 32.2612 4.80268 32.4638 4.90401C32.6718 5.00535 32.8452 5.17601 32.9838 5.41601H32.9998V4.86401H34.0798V8.73601Z" fill="black"/>
<path d="M25.3616 4.86401H26.4416V5.44001H26.4656C26.6096 5.20001 26.7962 5.02668 27.0256 4.92001C27.2549 4.80801 27.4896 4.75201 27.7296 4.75201C28.0336 4.75201 28.2816 4.79468 28.4736 4.88001C28.6709 4.96001 28.8256 5.07468 28.9376 5.22401C29.0496 5.36801 29.1269 5.54668 29.1696 5.76001C29.2176 5.96801 29.2416 6.20001 29.2416 6.45601V9.00001H28.1056V6.66401C28.1056 6.32268 28.0522 6.06935 27.9456 5.90401C27.8389 5.73335 27.6496 5.64801 27.3776 5.64801C27.0682 5.64801 26.8442 5.74135 26.7056 5.92801C26.5669 6.10935 26.4976 6.41068 26.4976 6.83201V9.00001H25.3616V4.86401Z" fill="black"/>
<path d="M20.72 6.13601C20.736 5.86935 20.8027 5.64801 20.92 5.47201C21.0374 5.29601 21.1867 5.15468 21.368 5.04801C21.5494 4.94135 21.752 4.86668 21.976 4.82401C22.2054 4.77601 22.4347 4.75201 22.664 4.75201C22.872 4.75201 23.0827 4.76801 23.296 4.80001C23.5094 4.82668 23.704 4.88268 23.88 4.96801C24.056 5.05335 24.2 5.17335 24.312 5.32801C24.424 5.47735 24.48 5.67735 24.48 5.92801V8.08001C24.48 8.26668 24.4907 8.44535 24.512 8.61601C24.5334 8.78668 24.5707 8.91468 24.624 9.00001H23.472C23.4507 8.93601 23.432 8.87201 23.416 8.80801C23.4054 8.73868 23.3974 8.66935 23.392 8.60001C23.2107 8.78668 22.9974 8.91735 22.752 8.99201C22.5067 9.06668 22.256 9.10401 22 9.10401C21.8027 9.10401 21.6187 9.08001 21.448 9.03201C21.2774 8.98401 21.128 8.90935 21 8.80801C20.872 8.70668 20.7707 8.57868 20.696 8.42401C20.6267 8.26935 20.592 8.08535 20.592 7.87201C20.592 7.63735 20.632 7.44535 20.712 7.29601C20.7974 7.14135 20.904 7.01868 21.032 6.92801C21.1654 6.83735 21.3147 6.77068 21.48 6.72801C21.6507 6.68001 21.8214 6.64268 21.992 6.61601C22.1627 6.58935 22.3307 6.56801 22.496 6.55201C22.6614 6.53601 22.808 6.51201 22.936 6.48001C23.064 6.44801 23.1654 6.40268 23.24 6.34401C23.3147 6.28001 23.3494 6.18935 23.344 6.07201C23.344 5.94935 23.3227 5.85335 23.28 5.78401C23.2427 5.70935 23.1894 5.65335 23.12 5.61601C23.056 5.57335 22.9787 5.54668 22.888 5.53601C22.8027 5.52001 22.7094 5.51201 22.608 5.51201C22.384 5.51201 22.208 5.56001 22.08 5.65601C21.952 5.75201 21.8774 5.91201 21.856 6.13601H20.72ZM23.344 6.97601C23.296 7.01868 23.2347 7.05335 23.16 7.08001C23.0907 7.10135 23.0134 7.12001 22.928 7.13601C22.848 7.15201 22.7627 7.16535 22.672 7.17601C22.5814 7.18668 22.4907 7.20001 22.4 7.21601C22.3147 7.23201 22.2294 7.25335 22.144 7.28001C22.064 7.30668 21.992 7.34401 21.928 7.39201C21.8694 7.43468 21.8214 7.49068 21.784 7.56001C21.7467 7.62935 21.728 7.71735 21.728 7.82401C21.728 7.92535 21.7467 8.01068 21.784 8.08001C21.8214 8.14935 21.872 8.20535 21.936 8.24801C22 8.28535 22.0747 8.31201 22.16 8.32801C22.2454 8.34401 22.3334 8.35201 22.424 8.35201C22.648 8.35201 22.8214 8.31468 22.944 8.24001C23.0667 8.16535 23.1574 8.07735 23.216 7.97601C23.2747 7.86935 23.3094 7.76268 23.32 7.65601C23.336 7.54935 23.344 7.46401 23.344 7.40001V6.97601Z" fill="black"/>
<path d="M17.6584 4.86401H18.7384V5.63201H18.7544C18.8078 5.50401 18.8798 5.38668 18.9704 5.28001C19.0611 5.16801 19.1651 5.07468 19.2824 5.00001C19.3998 4.92001 19.5251 4.85868 19.6584 4.81601C19.7918 4.77335 19.9304 4.75201 20.0744 4.75201C20.1491 4.75201 20.2318 4.76535 20.3224 4.79201V5.84801C20.2691 5.83735 20.2051 5.82935 20.1304 5.82401C20.0558 5.81335 19.9838 5.80801 19.9144 5.80801C19.7064 5.80801 19.5304 5.84268 19.3864 5.91201C19.2424 5.98135 19.1251 6.07735 19.0344 6.20001C18.9491 6.31735 18.8878 6.45601 18.8504 6.61601C18.8131 6.77601 18.7944 6.94935 18.7944 7.13601V9.00001H17.6584V4.86401Z" fill="black"/>
<path d="M12.56 6.16798C12.56 6.40798 12.5866 6.64264 12.64 6.87198C12.6986 7.09598 12.7893 7.29864 12.912 7.47998C13.0346 7.66131 13.1946 7.80798 13.392 7.91998C13.5893 8.02664 13.8293 8.07998 14.112 8.07998C14.3946 8.07998 14.6346 8.02664 14.832 7.91998C15.0293 7.80798 15.1893 7.66131 15.312 7.47998C15.4346 7.29864 15.5226 7.09598 15.576 6.87198C15.6346 6.64264 15.664 6.40798 15.664 6.16798C15.664 5.91731 15.6346 5.67464 15.576 5.43998C15.5226 5.20531 15.4346 4.99731 15.312 4.81598C15.1893 4.62931 15.0293 4.48264 14.832 4.37598C14.6346 4.26398 14.3946 4.20798 14.112 4.20798C13.8293 4.20798 13.5893 4.26398 13.392 4.37598C13.1946 4.48264 13.0346 4.62931 12.912 4.81598C12.7893 4.99731 12.6986 5.20531 12.64 5.43998C12.5866 5.67464 12.56 5.91731 12.56 6.16798ZM11.304 6.16798C11.304 5.74131 11.368 5.34664 11.496 4.98398C11.624 4.61598 11.808 4.29598 12.048 4.02398C12.288 3.75198 12.5813 3.53864 12.928 3.38398C13.28 3.22931 13.6746 3.15198 14.112 3.15198C14.5546 3.15198 14.9493 3.22931 15.296 3.38398C15.6426 3.53864 15.936 3.75198 16.176 4.02398C16.416 4.29598 16.6 4.61598 16.728 4.98398C16.856 5.34664 16.92 5.74131 16.92 6.16798C16.92 6.58398 16.856 6.97331 16.728 7.33598C16.6 7.69331 16.416 8.00531 16.176 8.27198C15.936 8.53864 15.6426 8.74931 15.296 8.90398C14.9493 9.05331 14.5546 9.12798 14.112 9.12798C13.6746 9.12798 13.28 9.05331 12.928 8.90398C12.5813 8.74931 12.288 8.53864 12.048 8.27198C11.808 8.00531 11.624 7.69331 11.496 7.33598C11.368 6.97331 11.304 6.58398 11.304 6.16798Z" fill="black"/>
</svg>
