<svg width="47" height="11" viewBox="0 0 47 11" fill="none" xmlns="http://www.w3.org/2000/svg">
<path fill-rule="evenodd" clip-rule="evenodd" d="M3.43701 4.83077L2.39127 5.01004V9.80122C2.39127 9.90927 2.30368 9.99686 2.19564 9.99686C2.08759 9.99686 2 9.90927 2 9.80122V1.7694C2 1.49193 2.19991 1.25482 2.4734 1.20794L3.37089 1.05408C4.1094 0.927482 4.86888 1.02433 5.552 1.33221C6.35283 1.69314 7.26296 1.72715 8.08849 1.42695L8.21983 1.37919C8.49312 1.27981 8.78208 1.4822 8.78208 1.773V4.67405C8.78208 4.85899 8.66638 5.02419 8.49256 5.08739L8.2222 5.18571C7.30082 5.52075 6.28503 5.48281 5.39122 5.07996C4.77918 4.80411 4.09869 4.71734 3.43701 4.83077Z" fill="#FFAD39"/>
<path d="M2 1.34021C2 1.23187 2.08783 1.14404 2.19618 1.14404C2.30452 1.14404 2.39235 1.23187 2.39235 1.34021V9.8038C2.39235 9.91214 2.30452 9.99997 2.19618 9.99997C2.08783 9.99997 2 9.91214 2 9.8038V1.34021Z" fill="#424242"/>
<path d="M44.3977 3.63637V4.54546H41.7699V3.63637H44.3977ZM42.3665 2.59091H43.5767V6.65909C43.5767 6.77084 43.5938 6.85796 43.6278 6.92046C43.6619 6.98106 43.7093 7.02368 43.7699 7.0483C43.8324 7.07292 43.9044 7.08523 43.9858 7.08523C44.0426 7.08523 44.0994 7.0805 44.1562 7.07103C44.2131 7.05966 44.2566 7.05114 44.2869 7.04546L44.4773 7.94603C44.4167 7.96496 44.3314 7.98675 44.2216 8.01137C44.1117 8.03788 43.9782 8.05398 43.821 8.05966C43.5294 8.07103 43.2737 8.0322 43.054 7.94318C42.8362 7.85417 42.6667 7.71591 42.5455 7.52841C42.4242 7.34091 42.3646 7.10417 42.3665 6.81818V2.59091Z" fill="black"/>
<path d="M39.2841 8.08523C38.8352 8.08523 38.4489 7.99432 38.125 7.8125C37.803 7.62879 37.5549 7.36932 37.3807 7.03409C37.2064 6.69697 37.1193 6.29829 37.1193 5.83807C37.1193 5.3892 37.2064 4.99526 37.3807 4.65625C37.5549 4.31723 37.8002 4.05303 38.1165 3.86363C38.4347 3.67424 38.8078 3.57954 39.2358 3.57954C39.5237 3.57954 39.7917 3.62595 40.0398 3.71875C40.2898 3.80966 40.5076 3.94697 40.6932 4.13068C40.8807 4.31439 41.0265 4.54545 41.1307 4.82386C41.2348 5.10038 41.2869 5.42424 41.2869 5.79545V6.12784H37.6023V5.37784H40.1477C40.1477 5.2036 40.1098 5.04924 40.0341 4.91477C39.9583 4.7803 39.8532 4.67519 39.7187 4.59943C39.5862 4.52178 39.4318 4.48295 39.2557 4.48295C39.072 4.48295 38.9091 4.52557 38.767 4.61079C38.6269 4.69413 38.517 4.80682 38.4375 4.94886C38.358 5.08901 38.3172 5.24526 38.3153 5.41761V6.13068C38.3153 6.34659 38.3551 6.53314 38.4347 6.69034C38.5161 6.84754 38.6307 6.96875 38.7784 7.05398C38.9261 7.1392 39.1013 7.18182 39.304 7.18182C39.4384 7.18182 39.5616 7.16288 39.6733 7.125C39.785 7.08712 39.8807 7.0303 39.9602 6.95454C40.0398 6.87879 40.1004 6.78598 40.142 6.67614L41.2614 6.75C41.2045 7.01894 41.0881 7.25379 40.9119 7.45454C40.7377 7.65341 40.5123 7.80871 40.2358 7.92045C39.9612 8.0303 39.6439 8.08523 39.2841 8.08523Z" fill="black"/>
<path d="M34.1989 9.72727C33.8068 9.72727 33.4706 9.67329 33.1903 9.56534C32.9119 9.45928 32.6903 9.31439 32.5256 9.13068C32.3608 8.94697 32.2538 8.74053 32.2045 8.51136L33.3239 8.36079C33.358 8.44791 33.4119 8.52935 33.4858 8.60511C33.5597 8.68087 33.6572 8.74148 33.7784 8.78693C33.9015 8.83428 34.0511 8.85795 34.2273 8.85795C34.4905 8.85795 34.7074 8.79356 34.8778 8.66477C35.0502 8.53788 35.1364 8.32481 35.1364 8.02557V7.22727H35.0852C35.0322 7.34848 34.9527 7.46307 34.8466 7.57102C34.7405 7.67898 34.6042 7.76704 34.4375 7.83523C34.2708 7.90341 34.072 7.9375 33.8409 7.9375C33.5133 7.9375 33.215 7.86174 32.946 7.71023C32.679 7.55682 32.4659 7.32292 32.3068 7.00852C32.1496 6.69223 32.071 6.29261 32.071 5.80966C32.071 5.31534 32.1515 4.90246 32.3125 4.57102C32.4735 4.23958 32.6875 3.99148 32.9545 3.8267C33.2235 3.66193 33.518 3.57954 33.8381 3.57954C34.0824 3.57954 34.2869 3.62121 34.4517 3.70454C34.6165 3.78598 34.7491 3.88826 34.8494 4.01136C34.9517 4.13257 35.0303 4.25189 35.0852 4.36932H35.1307V3.63636H36.3324V8.04261C36.3324 8.41382 36.2415 8.72443 36.0597 8.97443C35.8778 9.22443 35.6259 9.41193 35.304 9.53693C34.9839 9.66382 34.6155 9.72727 34.1989 9.72727ZM34.2244 7.02841C34.4195 7.02841 34.5843 6.98011 34.7188 6.88352C34.8551 6.78504 34.9593 6.64488 35.0312 6.46307C35.1051 6.27935 35.142 6.05966 35.142 5.80398C35.142 5.54829 35.1061 5.3267 35.0341 5.1392C34.9621 4.94981 34.858 4.80303 34.7216 4.69886C34.5852 4.5947 34.4195 4.54261 34.2244 4.54261C34.0256 4.54261 33.858 4.59659 33.7216 4.70454C33.5852 4.8106 33.482 4.95833 33.4119 5.14773C33.3419 5.33712 33.3068 5.55587 33.3068 5.80398C33.3068 6.05587 33.3419 6.27367 33.4119 6.45739C33.4839 6.6392 33.5871 6.7803 33.7216 6.88068C33.858 6.97917 34.0256 7.02841 34.2244 7.02841Z" fill="black"/>
<path d="M29.1626 8V3.63636H30.3359V4.39772H30.3814C30.4609 4.12689 30.5945 3.92234 30.782 3.78409C30.9695 3.64394 31.1854 3.57386 31.4297 3.57386C31.4903 3.57386 31.5556 3.57765 31.6257 3.58522C31.6958 3.5928 31.7573 3.60322 31.8104 3.61647V4.69034C31.7536 4.67329 31.675 4.65814 31.5746 4.64488C31.4742 4.63163 31.3823 4.625 31.299 4.625C31.121 4.625 30.9619 4.66382 30.8217 4.74147C30.6835 4.81723 30.5736 4.92329 30.4922 5.05966C30.4126 5.19602 30.3729 5.35322 30.3729 5.53125V8H29.1626Z" fill="black"/>
<path d="M25.7663 8.08238C25.4879 8.08238 25.2398 8.03409 25.022 7.9375C24.8042 7.83901 24.6319 7.69413 24.505 7.50284C24.38 7.30966 24.3175 7.06913 24.3175 6.78125C24.3175 6.53882 24.362 6.33523 24.451 6.17045C24.54 6.00568 24.6612 5.8731 24.8146 5.77273C24.968 5.67235 25.1423 5.59659 25.3374 5.54545C25.5343 5.49432 25.7408 5.45833 25.9567 5.4375C26.2105 5.41098 26.415 5.38636 26.5703 5.36363C26.7256 5.33901 26.8383 5.30303 26.9084 5.25568C26.9785 5.20833 27.0135 5.13826 27.0135 5.04545V5.02841C27.0135 4.84848 26.9567 4.70928 26.843 4.61079C26.7313 4.51231 26.5722 4.46307 26.3658 4.46307C26.148 4.46307 25.9747 4.51136 25.8459 4.60795C25.7171 4.70265 25.6319 4.82197 25.5902 4.96591L24.4709 4.875C24.5277 4.60985 24.6394 4.38068 24.8061 4.1875C24.9728 3.99242 25.1877 3.8428 25.451 3.73863C25.7161 3.63257 26.023 3.57954 26.3714 3.57954C26.6139 3.57954 26.8459 3.60795 27.0675 3.66477C27.291 3.72159 27.4889 3.80966 27.6612 3.92898C27.8355 4.04829 27.9728 4.2017 28.0732 4.3892C28.1735 4.57481 28.2237 4.79735 28.2237 5.05682V8H27.076V7.39489H27.0419C26.9718 7.53125 26.8781 7.65151 26.7607 7.75568C26.6432 7.85795 26.5021 7.93845 26.3374 7.99716C26.1726 8.05398 25.9822 8.08238 25.7663 8.08238ZM26.1129 7.24716C26.291 7.24716 26.4482 7.21212 26.5845 7.14204C26.7209 7.07007 26.8279 6.97348 26.9055 6.85227C26.9832 6.73106 27.022 6.59375 27.022 6.44034V5.97727C26.9841 6.00189 26.9321 6.02462 26.8658 6.04545C26.8014 6.06439 26.7285 6.08239 26.647 6.09943C26.5656 6.11458 26.4841 6.12879 26.4027 6.14204C26.3213 6.15341 26.2474 6.16382 26.1811 6.17329C26.0391 6.19413 25.915 6.22727 25.8089 6.27273C25.7029 6.31818 25.6205 6.37973 25.5618 6.45739C25.5031 6.53314 25.4737 6.62784 25.4737 6.74148C25.4737 6.90625 25.5334 7.0322 25.6527 7.11932C25.7739 7.20454 25.9273 7.24716 26.1129 7.24716Z" fill="black"/>
<path d="M19.5732 3.19602V2.18182H24.3516V3.19602H22.5703V8H21.3544V3.19602H19.5732Z" fill="black"/>
<path d="M12.7188 5.62784V4.62784L16.7188 2.86648V4.01705L13.9801 5.11648L14.017 5.05682V5.19886L13.9801 5.13921L16.7188 6.23864V7.38921L12.7188 5.62784Z" fill="black"/>
</svg>
