<svg width="29" height="11" viewBox="0 0 29 11" fill="none" xmlns="http://www.w3.org/2000/svg">
<path fill-rule="evenodd" clip-rule="evenodd" d="M3.43701 4.83077L2.39127 5.01004V9.80122C2.39127 9.90927 2.30368 9.99686 2.19564 9.99686C2.08759 9.99686 2 9.90927 2 9.80122V1.7694C2 1.49193 2.19991 1.25482 2.4734 1.20794L3.37089 1.05408C4.1094 0.927482 4.86888 1.02433 5.552 1.33221C6.35283 1.69314 7.26296 1.72715 8.08849 1.42695L8.21983 1.37919C8.49312 1.27981 8.78208 1.4822 8.78208 1.773V4.67405C8.78208 4.85899 8.66638 5.02419 8.49256 5.08739L8.2222 5.18571C7.30082 5.52075 6.28503 5.48281 5.39122 5.07996C4.77918 4.80411 4.09869 4.71734 3.43701 4.83077Z" fill="#FF6961"/>
<path d="M2 1.34021C2 1.23187 2.08783 1.14404 2.19618 1.14404C2.30452 1.14404 2.39235 1.23187 2.39235 1.34021V9.8038C2.39235 9.91214 2.30452 9.99997 2.19618 9.99997C2.08783 9.99997 2 9.91214 2 9.8038V1.34021Z" fill="#424242"/>
<path d="M24.7353 6.92003C24.7353 6.74936 24.7193 6.58669 24.6873 6.43203C24.6553 6.27203 24.5993 6.13336 24.5193 6.01603C24.4446 5.89336 24.346 5.79469 24.2233 5.72003C24.1006 5.64536 23.946 5.60803 23.7593 5.60803C23.5726 5.60803 23.4153 5.64536 23.2873 5.72003C23.1593 5.79469 23.0553 5.89336 22.9753 6.01603C22.9006 6.13869 22.8446 6.28002 22.8073 6.44002C22.7753 6.59469 22.7593 6.75736 22.7593 6.92803C22.7593 7.08803 22.778 7.24803 22.8153 7.40803C22.8526 7.56803 22.9113 7.71203 22.9913 7.84003C23.0766 7.96269 23.1806 8.06403 23.3033 8.14403C23.4313 8.21869 23.5833 8.25603 23.7593 8.25603C23.946 8.25603 24.1006 8.21869 24.2233 8.14403C24.3513 8.06936 24.4526 7.97069 24.5273 7.84803C24.602 7.72003 24.6553 7.57603 24.6873 7.41603C24.7193 7.25603 24.7353 7.09069 24.7353 6.92003ZM24.7513 8.47203H24.7353C24.602 8.69603 24.426 8.85869 24.2073 8.96003C23.994 9.05603 23.7513 9.10403 23.4793 9.10403C23.17 9.10403 22.898 9.04536 22.6633 8.92803C22.4286 8.80536 22.234 8.64269 22.0793 8.44003C21.93 8.23203 21.8153 7.99469 21.7353 7.72802C21.6606 7.46136 21.6233 7.18403 21.6233 6.89603C21.6233 6.61869 21.6606 6.35202 21.7353 6.09602C21.8153 5.83469 21.93 5.60536 22.0793 5.40803C22.234 5.21069 22.426 5.05336 22.6553 4.93603C22.8846 4.81336 23.1513 4.75203 23.4553 4.75203C23.7006 4.75203 23.9326 4.80536 24.1513 4.91202C24.3753 5.01336 24.5513 5.16536 24.6793 5.36803H24.6953V3.28802H25.8313V9.00003H24.7513V8.47203Z" fill="black"/>
<path d="M19.9894 6.48801C19.936 6.20001 19.84 5.98135 19.7014 5.83201C19.568 5.68268 19.3627 5.60801 19.0854 5.60801C18.904 5.60801 18.752 5.64001 18.6294 5.70401C18.512 5.76268 18.416 5.83735 18.3414 5.92801C18.272 6.01868 18.2214 6.11468 18.1894 6.21601C18.1627 6.31735 18.1467 6.40801 18.1414 6.48801H19.9894ZM18.1414 7.20801C18.1574 7.57601 18.2507 7.84268 18.4214 8.00801C18.592 8.17335 18.8374 8.25601 19.1574 8.25601C19.3867 8.25601 19.584 8.20001 19.7494 8.08801C19.9147 7.97068 20.016 7.84801 20.0534 7.72001H21.0534C20.8934 8.21601 20.648 8.57068 20.3174 8.78401C19.9867 8.99735 19.5867 9.10401 19.1174 9.10401C18.792 9.10401 18.4987 9.05335 18.2374 8.95201C17.976 8.84535 17.7547 8.69601 17.5734 8.50401C17.392 8.31201 17.2507 8.08268 17.1494 7.81601C17.0534 7.54935 17.0054 7.25601 17.0054 6.93601C17.0054 6.62668 17.056 6.33868 17.1574 6.07201C17.2587 5.80535 17.4027 5.57601 17.5894 5.38401C17.776 5.18668 17.9974 5.03201 18.2534 4.92001C18.5147 4.80801 18.8027 4.75201 19.1174 4.75201C19.4694 4.75201 19.776 4.82135 20.0374 4.96001C20.2987 5.09335 20.512 5.27468 20.6774 5.50401C20.848 5.73335 20.9707 5.99468 21.0454 6.28801C21.12 6.58135 21.1467 6.88801 21.1254 7.20801H18.1414Z" fill="black"/>
<path d="M12.808 5.87203H14.184C14.472 5.87203 14.688 5.80803 14.832 5.68003C14.976 5.55203 15.048 5.34403 15.048 5.05603C15.048 4.77869 14.976 4.57869 14.832 4.45603C14.688 4.32803 14.472 4.26403 14.184 4.26403H12.808V5.87203ZM11.552 3.28802H14.632C14.888 3.28802 15.1173 3.33069 15.32 3.41603C15.528 3.49603 15.704 3.60803 15.848 3.75203C15.9973 3.89603 16.1093 4.06403 16.184 4.25602C16.264 4.44269 16.304 4.64536 16.304 4.86403C16.304 5.20003 16.232 5.49069 16.088 5.73603C15.9493 5.98136 15.72 6.16802 15.4 6.29602V6.31203C15.5547 6.35469 15.6827 6.42136 15.784 6.51203C15.8853 6.59736 15.968 6.70136 16.032 6.82403C16.096 6.94136 16.1413 7.07203 16.168 7.21603C16.2 7.36003 16.2213 7.50402 16.232 7.64803C16.2373 7.73869 16.2427 7.84536 16.248 7.96803C16.2533 8.09069 16.2613 8.21603 16.272 8.34403C16.288 8.47202 16.3093 8.59469 16.336 8.71203C16.368 8.82403 16.4133 8.92003 16.472 9.00003H15.216C15.1467 8.81869 15.104 8.60269 15.088 8.35203C15.072 8.10136 15.048 7.86136 15.016 7.63203C14.9733 7.33336 14.8827 7.11469 14.744 6.97603C14.6053 6.83736 14.3787 6.76802 14.064 6.76802H12.808V9.00003H11.552V3.28802Z" fill="black"/>
</svg>
