<svg width="37" height="11" viewBox="0 0 37 11" fill="none" xmlns="http://www.w3.org/2000/svg">
<path fill-rule="evenodd" clip-rule="evenodd" d="M3.43701 4.83077L2.39127 5.01004V9.80122C2.39127 9.90927 2.30368 9.99686 2.19564 9.99686C2.08759 9.99686 2 9.90927 2 9.80122V1.7694C2 1.49193 2.19991 1.25482 2.4734 1.20794L3.37089 1.05408C4.1094 0.927482 4.86888 1.02433 5.552 1.33221C6.35283 1.69314 7.26296 1.72715 8.08849 1.42695L8.21983 1.37919C8.49312 1.27981 8.78208 1.4822 8.78208 1.773V4.67405C8.78208 4.85899 8.66638 5.02419 8.49256 5.08739L8.2222 5.18571C7.30082 5.52075 6.28503 5.48281 5.39122 5.07996C4.77918 4.80411 4.09869 4.71734 3.43701 4.83077Z" fill="#FF6961"/>
<path d="M2 1.34021C2 1.23187 2.08783 1.14404 2.19618 1.14404C2.30452 1.14404 2.39235 1.23187 2.39235 1.34021V9.8038C2.39235 9.91214 2.30452 9.99997 2.19618 9.99997C2.08783 9.99997 2 9.91214 2 9.8038V1.34021Z" fill="#424242"/>
<path d="M30.4822 6.47727V9H29.272V4.63636H30.4254V5.40625H30.4766C30.5732 5.15246 30.7351 4.9517 30.9624 4.80398C31.1896 4.65435 31.4652 4.57954 31.7891 4.57954C32.0921 4.57954 32.3563 4.64583 32.5817 4.77841C32.8071 4.91098 32.9822 5.10038 33.1072 5.34659C33.2322 5.59091 33.2947 5.88257 33.2947 6.22159V9H32.0845V6.4375C32.0864 6.17045 32.0182 5.96212 31.88 5.8125C31.7417 5.66098 31.5514 5.58523 31.3089 5.58523C31.1461 5.58523 31.0021 5.62026 30.8771 5.69034C30.754 5.76042 30.6574 5.86269 30.5874 5.99716C30.5192 6.12973 30.4841 6.28977 30.4822 6.47727Z" fill="black"/>
<path d="M27.0923 9V4.63637H28.3026V9H27.0923ZM27.7003 4.07387C27.5204 4.07387 27.366 4.01421 27.2372 3.89489C27.1103 3.77368 27.0469 3.62879 27.0469 3.46023C27.0469 3.29356 27.1103 3.15057 27.2372 3.03125C27.366 2.91004 27.5204 2.84943 27.7003 2.84943C27.8802 2.84943 28.0336 2.91004 28.1605 3.03125C28.2893 3.15057 28.3537 3.29356 28.3537 3.46023C28.3537 3.62879 28.2893 3.77368 28.1605 3.89489C28.0336 4.01421 27.8802 4.07387 27.7003 4.07387Z" fill="black"/>
<path d="M19.7947 3.18182H21.3118L22.9141 7.09091H22.9822L24.5845 3.18182H26.1016V9H24.9084V5.21307H24.8601L23.3544 8.97159H22.5419L21.0362 5.19886H20.9879V9H19.7947V3.18182Z" fill="black"/>
<path d="M12.7188 6.62784V5.62784L16.7188 3.86648V5.01705L13.9801 6.11648L14.017 6.05682V6.19886L13.9801 6.13921L16.7188 7.23864V8.38921L12.7188 6.62784Z" fill="black"/>
</svg>
