<svg width="40" height="11" viewBox="0 0 40 11" fill="none" xmlns="http://www.w3.org/2000/svg">
<path fill-rule="evenodd" clip-rule="evenodd" d="M3.43701 4.83077L2.39127 5.01004V9.80122C2.39127 9.90927 2.30368 9.99686 2.19564 9.99686C2.08759 9.99686 2 9.90927 2 9.80122V1.7694C2 1.49193 2.19991 1.25482 2.4734 1.20794L3.37089 1.05408C4.1094 0.927482 4.86888 1.02433 5.552 1.33221C6.35283 1.69314 7.26296 1.72715 8.08849 1.42695L8.21983 1.37919C8.49312 1.27981 8.78208 1.4822 8.78208 1.773V4.67405C8.78208 4.85899 8.66638 5.02419 8.49256 5.08739L8.2222 5.18571C7.30082 5.52075 6.28503 5.48281 5.39122 5.07996C4.77918 4.80411 4.09869 4.71734 3.43701 4.83077Z" fill="#F0DA30"/>
<path d="M2 1.34021C2 1.23187 2.08783 1.14404 2.19618 1.14404C2.30452 1.14404 2.39235 1.23187 2.39235 1.34021V9.8038C2.39235 9.91214 2.30452 9.99997 2.19618 9.99997C2.08783 9.99997 2 9.91214 2 9.8038V1.34021Z" fill="#424242"/>
<path d="M34.2148 9.00001H33.0468L32.3108 6.22401H32.2948L31.5908 9.00001H30.4148L29.1028 4.86401H30.3028L31.0628 7.67201H31.0788L31.7668 4.86401H32.8708L33.5748 7.66401H33.5908L34.3508 4.86401H35.5188L34.2148 9.00001Z" fill="black"/>
<path d="M25.604 6.93601C25.604 7.10135 25.62 7.26401 25.652 7.42401C25.684 7.57868 25.7374 7.72001 25.812 7.84801C25.892 7.97068 25.996 8.06935 26.124 8.14401C26.252 8.21868 26.412 8.25601 26.604 8.25601C26.796 8.25601 26.956 8.21868 27.084 8.14401C27.2174 8.06935 27.3214 7.97068 27.396 7.84801C27.476 7.72001 27.532 7.57868 27.564 7.42401C27.596 7.26401 27.612 7.10135 27.612 6.93601C27.612 6.77068 27.596 6.60801 27.564 6.44801C27.532 6.28801 27.476 6.14668 27.396 6.02401C27.3214 5.90135 27.2174 5.80268 27.084 5.72801C26.956 5.64801 26.796 5.60801 26.604 5.60801C26.412 5.60801 26.252 5.64801 26.124 5.72801C25.996 5.80268 25.892 5.90135 25.812 6.02401C25.7374 6.14668 25.684 6.28801 25.652 6.44801C25.62 6.60801 25.604 6.77068 25.604 6.93601ZM24.468 6.93601C24.468 6.60535 24.5187 6.30668 24.62 6.04001C24.7214 5.76801 24.8654 5.53868 25.052 5.35201C25.2387 5.16001 25.4627 5.01335 25.724 4.91201C25.9854 4.80535 26.2787 4.75201 26.604 4.75201C26.9294 4.75201 27.2227 4.80535 27.484 4.91201C27.7507 5.01335 27.9774 5.16001 28.164 5.35201C28.3507 5.53868 28.4947 5.76801 28.596 6.04001C28.6974 6.30668 28.748 6.60535 28.748 6.93601C28.748 7.26668 28.6974 7.56535 28.596 7.83201C28.4947 8.09868 28.3507 8.32801 28.164 8.52001C27.9774 8.70668 27.7507 8.85068 27.484 8.95201C27.2227 9.05335 26.9294 9.10401 26.604 9.10401C26.2787 9.10401 25.9854 9.05335 25.724 8.95201C25.4627 8.85068 25.2387 8.70668 25.052 8.52001C24.8654 8.32801 24.7214 8.09868 24.62 7.83201C24.5187 7.56535 24.468 7.26668 24.468 6.93601Z" fill="black"/>
<path d="M22.5657 3.28802H23.7017V9.00003H22.5657V3.28802Z" fill="black"/>
<path d="M20.5032 3.28802H21.6392V9.00003H20.5032V3.28802Z" fill="black"/>
<path d="M18.6612 6.48801C18.6079 6.20001 18.5119 5.98135 18.3732 5.83201C18.2399 5.68268 18.0346 5.60801 17.7572 5.60801C17.5759 5.60801 17.4239 5.64001 17.3012 5.70401C17.1839 5.76268 17.0879 5.83735 17.0132 5.92801C16.9439 6.01868 16.8932 6.11468 16.8612 6.21601C16.8346 6.31735 16.8186 6.40801 16.8132 6.48801H18.6612ZM16.8132 7.20801C16.8292 7.57601 16.9226 7.84268 17.0932 8.00801C17.2639 8.17335 17.5092 8.25601 17.8292 8.25601C18.0586 8.25601 18.2559 8.20001 18.4212 8.08801C18.5866 7.97068 18.6879 7.84801 18.7252 7.72001H19.7252C19.5652 8.21601 19.3199 8.57068 18.9892 8.78401C18.6586 8.99735 18.2586 9.10401 17.7892 9.10401C17.4639 9.10401 17.1706 9.05335 16.9092 8.95201C16.6479 8.84535 16.4266 8.69601 16.2452 8.50401C16.0639 8.31201 15.9226 8.08268 15.8212 7.81601C15.7252 7.54935 15.6772 7.25601 15.6772 6.93601C15.6772 6.62668 15.7279 6.33868 15.8292 6.07201C15.9306 5.80535 16.0746 5.57601 16.2612 5.38401C16.4479 5.18668 16.6692 5.03201 16.9252 4.92001C17.1866 4.80801 17.4746 4.75201 17.7892 4.75201C18.1412 4.75201 18.4479 4.82135 18.7092 4.96001C18.9706 5.09335 19.1839 5.27468 19.3492 5.50401C19.5199 5.73335 19.6426 5.99468 19.7172 6.28801C19.7919 6.58135 19.8186 6.88801 19.7972 7.20801H16.8132Z" fill="black"/>
<path d="M13.032 6.77603L10.936 3.28802H12.344L13.68 5.54402L15.008 3.28802H16.408L14.288 6.80802V9.00003H13.032V6.77603Z" fill="black"/>
</svg>
