<svg width="9" height="11" viewBox="0 0 9 11" fill="none" xmlns="http://www.w3.org/2000/svg">
<path fill-rule="evenodd" clip-rule="evenodd" d="M2.43701 4.83077L1.39127 5.01004V9.80122C1.39127 9.90927 1.30368 9.99686 1.19564 9.99686C1.08759 9.99686 1 9.90927 1 9.80122V1.7694C1 1.49193 1.19991 1.25482 1.4734 1.20794L2.37089 1.05408C3.1094 0.927482 3.86888 1.02433 4.552 1.33221C5.35283 1.69314 6.26296 1.72715 7.08849 1.42695L7.21983 1.37919C7.49312 1.27981 7.78208 1.4822 7.78208 1.773V4.67405C7.78208 4.85899 7.66638 5.02419 7.49256 5.08739L7.2222 5.18571C6.30082 5.52075 5.28503 5.48281 4.39122 5.07996C3.77918 4.80411 3.09869 4.71734 2.43701 4.83077Z" fill="#F0DA30"/>
<path d="M1 1.34021C1 1.23187 1.08783 1.14404 1.19618 1.14404C1.30452 1.14404 1.39235 1.23187 1.39235 1.34021V9.8038C1.39235 9.91214 1.30452 9.99997 1.19618 9.99997C1.08783 9.99997 1 9.91214 1 9.8038V1.34021Z" fill="#424242"/>
</svg>
